<svg width="1200" height="630" viewBox="0 0 1200 630" xmlns="http://www.w3.org/2000/svg">
  <defs>
    <linearGradient id="bg" x1="0%" y1="0%" x2="100%" y2="100%">
      <stop offset="0%" style="stop-color:#4A90E2;stop-opacity:1" />
      <stop offset="100%" style="stop-color:#357ABD;stop-opacity:1" />
    </linearGradient>
    <pattern id="grid" width="50" height="50" patternUnits="userSpaceOnUse">
      <path d="M 50 0 L 0 0 0 50" fill="none" stroke="white" stroke-width="0.5" opacity="0.1"/>
    </pattern>
  </defs>
  
  <rect width="1200" height="630" fill="url(#bg)"/>
  <rect width="1200" height="630" fill="url(#grid)"/>
  
  <!-- 収納ボックスアイコン -->
  <g transform="translate(600, 200)">
    <rect x="-150" y="-80" width="300" height="200" rx="20" fill="white" opacity="0.2"/>
    <rect x="-130" y="-60" width="260" height="160" rx="15" fill="white" opacity="0.3"/>
    
    <!-- 引き出し -->
    <rect x="-110" y="-40" width="220" height="50" rx="10" fill="white" opacity="0.9"/>
    <rect x="-110" y="20" width="220" height="50" rx="10" fill="white" opacity="0.9"/>
    <rect x="-110" y="80" width="220" height="50" rx="10" fill="white" opacity="0.9"/>
    
    <!-- 取っ手 -->
    <rect x="-20" y="-20" width="40" height="10" rx="5" fill="#4A90E2"/>
    <rect x="-20" y="40" width="40" height="10" rx="5" fill="#4A90E2"/>
    <rect x="-20" y="100" width="40" height="10" rx="5" fill="#4A90E2"/>
  </g>
  
  <!-- 虫眼鏡アイコン -->
  <g transform="translate(800, 350) rotate(45)">
    <circle cx="0" cy="0" r="40" stroke="white" stroke-width="8" fill="none"/>
    <line x1="28" y1="28" x2="60" y2="60" stroke="white" stroke-width="8" stroke-linecap="round"/>
  </g>
  
  
  <!-- 装飾的な円 -->
  <circle cx="200" cy="100" r="60" fill="white" opacity="0.1"/>
  <circle cx="1000" cy="500" r="80" fill="white" opacity="0.1"/>
  <circle cx="150" cy="450" r="40" fill="white" opacity="0.15"/>
  <circle cx="950" cy="150" r="50" fill="white" opacity="0.1"/>
</svg>